
<svg xmlns="http://www.w3.org/2000/svg" width="55" height="20" viewBox="0 0 55 20" >
  <style>
      #favicon {
        fill: #111;
        @media (prefers-color-scheme: dark) {
          fill: #fff;
        }
      }
    </style>
  <path d="M41.4752 7.15733L38.3605 4.04266V3.38133L41.4752 0.266663H42.1792L45.4218 3.38133V4.04266L42.1792 7.15733H41.4752ZM49.6885 7.15733L46.5738 4.04266V3.38133L49.6885 0.266663H50.4138L53.6565 3.38133V4.04266L50.4138 7.15733H49.6885ZM48.4085 25.1627C48.3232 25.3618 48.1454 25.6249 47.8752 25.952C47.6192 26.2791 47.2778 26.6418 46.8512 27.04C46.4245 27.424 45.8983 27.7511 45.2725 28.0213C44.6467 28.3058 44.0138 28.448 43.3738 28.448C41.3685 28.448 39.9321 27.8507 39.0645 26.656C38.2112 25.4613 37.7845 23.4702 37.7845 20.6827V13.088L37.0378 12.32V9.86666H44.7818V22.0267C44.7676 22.6667 44.8743 23.1431 45.1018 23.456C45.3294 23.7547 45.7418 23.904 46.3392 23.904C46.4245 23.904 46.5027 23.904 46.5738 23.904C46.645 23.8898 46.7161 23.8756 46.7872 23.8613C46.8583 23.8329 46.9152 23.8116 46.9578 23.7973C47.0147 23.7831 47.0787 23.7618 47.1498 23.7333C47.221 23.6907 47.2778 23.6551 47.3205 23.6267C47.3632 23.5982 47.4201 23.5627 47.4912 23.52C47.5623 23.4631 47.6121 23.4204 47.6405 23.392C47.6832 23.3635 47.7401 23.3209 47.8112 23.264C47.8965 23.1929 47.9605 23.1431 48.0032 23.1147V13.088L46.8512 12.32V9.86666H54.9792V28H49.0698L48.4085 25.1627Z" fill="red"/>
  <path d="M29.6518 28L28.8198 25.248C28.7061 25.4471 28.5709 25.6462 28.4145 25.8453C28.2723 26.0444 28.0376 26.3004 27.7105 26.6133C27.3834 26.912 27.0349 27.1751 26.6652 27.4027C26.2954 27.6302 25.8332 27.8293 25.2785 28C24.7238 28.1707 24.1407 28.256 23.5292 28.256C21.1825 28.256 19.4616 27.4524 18.3665 25.8453C17.2714 24.2382 16.7238 22.0053 16.7238 19.1467C16.7238 17.3547 16.9798 15.7618 17.4918 14.368C18.0038 12.96 18.8074 11.8293 19.9025 10.976C20.9976 10.1227 22.3203 9.696 23.8705 9.696C24.7949 9.696 25.6198 9.79555 26.3452 9.99466C27.0705 10.1938 27.6963 10.4356 28.2225 10.72V4.256L25.8758 3.46666V1.12L33.4278 0.0533295H35.0918V28H29.6518ZM26.6438 24.0747C26.8998 24.0747 27.1629 24.032 27.4332 23.9467C27.7034 23.8471 27.9665 23.712 28.2225 23.5413V12.8107C27.7816 12.7111 27.3763 12.6613 27.0065 12.6613C25.1149 12.6756 24.1621 14.1333 24.1478 17.0347V20.0213C24.1478 21.3582 24.3825 22.368 24.8518 23.0507C25.3212 23.7333 25.9185 24.0747 26.6438 24.0747Z" fill="red"/>
  <path d="M15.5547 28H0.429337V2.99733H15.2347L14.808 8.032L7.49067 7.81866V12.64H13.2507V17.632L7.49067 17.2053V22.88L15.5547 22.6667V28Z" fill="red"/>
</svg>
